PathFileType	4	(X/Y/Z)	TRC_missing_Z7
DataRate	CameraRate	NumFrames	NumMarkers	Units	OrigDataRate	OrigDataStartFrame	OrigNumFrames
100.00	100.00	       8	45	mm	100.00	1305	       2609
Frame#	Time	T10			C7			CLAV			RACR1			LACR1			RPSI			LPSI			RASI			LASI			LTH2			LTH3			LTH1			RTH2			RTH3			RTH1			RLFC			RTB1			RTB3			RTB2			LLFC			LTB1			LTB3			LTB2			LLMAL			LCAL			RLMAL			RCAL			RMT5			RMT1			LMT5			LMT1			*31			*32			*33			*34			*35			*36			*37			*38			*39			*40			*41			*42			*43			*44			
		X1	Y1	Z1	X2	Y2	Z2	X3	Y3	Z3	X4	Y4	Z4	X5	Y5	Z5	X6	Y6	Z6	X7	Y7	X8	Y8	Z8	X9	Y9	Z9	X10	Y10	Z10	X11	Y11	Z11	X12	Y12	Z12	X13	Y13	Z13	X14	Y14	Z14	X15	Y15	Z15	X16	Y16	Z16	X17	Y17	Z17	X18	Y18	Z18	X19	Y19	Z19	X20	Y20	Z20	X21	Y21	Z21	X22	Y22	Z22	X23	Y23	Z23	X24	Y24	Z24	X25	Y25	Z25	X26	Y26	Z26	X27	Y27	Z27	X28	Y28	Z28	X29	Y29	Z29	X30	Y30	Z30	X31	Y31	Z31	X32	Y32	Z32	X33	Y33	Z33	X34	Y34	Z34	X35	Y35	Z35	X36	Y36	Z36	X37	Y37	Z37	X38	Y38	Z38	X39	Y39	Z39	X40	Y40	Z40	X41	Y41	Z41	X42	Y42	Z42	X43	Y43	Z43	X44	Y44	Z44	X45	Y45	Z45	
1305	13.040000	698.845337	1219.893555	-511.317383	691.745789	1475.628296	-386.009399	714.498291	1319.125610	-288.817291	540.016663	1420.393311	-349.546173	875.052673	1423.417480	-390.244568	657.052734	1010.722107	-584.671509	744.841553	1005.940247	-578.929077	559.678589	965.003662	-359.918182	813.626526	964.685425	-342.254517	848.208130	722.120789	-299.612732	882.650757	767.913147	-350.974518	838.551208	856.668701	-328.362762	567.535278	678.519104	-415.042328	523.918457	751.929749	-425.920502	579.002014	791.104614	-365.652985	562.700806	488.348663	-555.015930	609.602173	371.804901	-568.367432	585.994934	312.275787	-623.899170	613.385315	262.913513	-641.812317	818.671753	507.839569	-278.624451	770.383484	398.026428	-235.374191	802.638245	331.617432	-259.743195	764.233826	278.496887	-255.293945	796.844666	80.704140	-323.737762	751.361938	32.909740	-377.080353	600.460815	120.433380	-779.116089	640.511963	107.801025	-854.819946	598.135925	45.218304	-694.716370	675.903748	47.054535	-668.415283	816.144592	49.089428	-207.094589	748.797729	61.503765	-177.437424	921.976257	1052.272949	407.291565	0.000000	0.000000	0.000000	0.000000	0.000000	0.000000	921.722351	1058.135742	399.916595	0.000000	0.000000	0.000000	0.000000	0.000000	0.000000	0.000000	0.000000	0.000000	-18.057707	12.090792	-1119.618164	1151.581421	12.611911	-1033.588257	-0.762304	11.990486	0.900690	1167.713379	12.552332	85.342880	0.000000	0.000000	0.000000	0.000000	0.000000	0.000000	0.000000	0.000000	0.000000	
1306	13.050000	700.398376	1219.707275	-510.729736	693.331482	1475.669678	-385.888214	715.854004	1319.292725	-288.340027	541.471008	1420.501343	-349.582123	876.639160	1423.318604	-389.656281	658.502258	1010.466125	-583.693848	746.323608	1005.980530	-577.892700	560.987549	964.762878	-359.140839	814.885193	964.793762	-341.141754	848.581238	721.364258	-299.237793	883.268921	767.538757	-349.888763	839.706726	856.162109	-327.234497	568.458374	678.039246	-414.189941	525.153931	751.515076	-425.091766	580.261475	790.739319	-364.852386	563.059143	488.184540	-554.832520	609.386353	371.664001	-569.653748	585.818176	313.324524	-626.238708	612.991028	264.073395	-644.847961	819.045715	506.420868	-280.683624	770.014160	396.343506	-238.640930	802.397156	330.116852	-263.200073	763.799866	277.044220	-259.644958	796.690247	80.219376	-330.075623	751.607178	32.885941	-384.241852	600.149109	123.826836	-784.488892	640.516357	113.304016	-860.002869	598.166138	45.421940	-703.097778	675.893127	46.859543	-677.382141	815.728882	48.161583	-213.720612	748.057617	60.222401	-184.173676	921.846741	1052.401367	406.776978	844.520447	717.106323	-294.348511	271.407379	1036.301270	618.938721	921.718994	1058.127075	399.901459	0.000000	0.000000	0.000000	0.000000	0.000000	0.000000	0.000000	0.000000	0.000000	-18.057730	12.090904	-1119.618286	1151.581421	12.611834	-1033.588135	-0.762259	11.990439	0.900577	1167.713257	12.552375	85.342941	0.000000	0.000000	0.000000	0.000000	0.000000	0.000000	0.000000	0.000000	0.000000	
1307	13.060000	701.979614	1219.569580	-510.104767	694.967285	1475.763184	-385.738892	717.214172	1319.515381	-287.824280	542.958008	1420.694458	-349.606873	878.269226	1423.252808	-388.973450	659.944397	1010.237366	-582.679138	747.799561	1006.084656	-576.823669	562.323242	964.556091	-358.326477	816.162598	964.963806	-340.000183	849.028870	720.539246	-298.867218	883.999268	767.234009	-348.861420	840.916260	855.705322	-326.122955	569.321045	677.589539	-412.997284	526.359680	751.125183	-424.047729	581.530701	790.458618	-363.895935	563.321838	487.964172	-554.115417	609.027466	371.496399	-570.396118	585.540833	314.409576	-628.069641	612.477844	265.285004	-647.378601	819.521118	505.038757	-282.966919	769.772522	394.657166	-242.243439	802.246399	328.639954	-267.101318	763.459412	275.614197	-264.471344	796.541016	79.846138	-337.132843	751.815369	33.004959	-392.114563	599.823608	127.393417	-789.395874	640.582703	119.125191	-864.583069	598.225220	45.689632	-711.392029	675.912842	46.711594	-686.316467	815.415588	47.257988	-221.073792	747.417786	58.976097	-191.582413	921.712646	1052.546631	406.245636	0.000000	0.000000	0.000000	0.000000	0.000000	0.000000	921.718262	1058.125122	399.898132	573.375244	2308.617432	-557.365051	0.000000	0.000000	0.000000	0.000000	0.000000	0.000000	-18.057753	12.091017	-1119.618408	1151.581421	12.611757	-1033.588013	-0.762215	11.990392	0.900464	1167.713135	12.552420	85.343002	0.000000	0.000000	0.000000	0.000000	0.000000	0.000000	0.000000	0.000000	0.000000	
1308	13.070000	703.584717	1219.481201	-509.451050	696.647156	1475.906860	-385.565094	718.572327	1319.790039	-287.277222	544.472229	1420.970337	-349.623779	879.935852	1423.218628	-388.201294	661.379211	1010.035889	-581.642456	749.268616	1006.251892	-575.735352	563.680908	964.383545	-357.489746	817.454712	965.194519	-338.842224	849.557129	719.624817	-298.524109	884.851074	766.998474	-347.943665	842.179199	855.298706	-325.045166	570.111389	677.177551	-411.467896	527.526001	750.766541	-422.798920	582.800781	790.268372	-362.795258	563.481384	487.687897	-552.846130	608.523315	371.304840	-570.566345	585.162170	315.528046	-629.359070	611.845703	266.546997	-649.367615	820.095886	503.702515	-285.487854	769.662903	392.984497	-246.165787	802.190796	327.194550	-271.415253	763.219299	274.216736	-269.720612	796.403625	79.562889	-344.780365	751.991089	33.229321	-400.549713	599.484009	131.130875	-793.786133	640.707092	125.253235	-868.506775	598.312195	46.043747	-719.544067	675.960510	46.631165	-695.158997	815.206360	46.391270	-229.006287	746.879944	57.791206	-199.523590	921.579163	1052.705933	405.717957	923.234741	1055.607544	474.238251	0.000000	0.000000	0.000000	0.000000	0.000000	0.000000	0.000000	0.000000	0.000000	0.000000	0.000000	0.000000	0.000000	0.000000	0.000000	-18.057775	12.091131	-1119.618530	1151.581421	12.611682	-1033.588013	-0.762171	11.990345	0.900350	1167.713013	12.552464	85.343063	0.000000	0.000000	0.000000	0.000000	0.000000	0.000000	0.000000	0.000000	0.000000	
1309	13.080000	705.209351	1219.441895	-508.777527	698.364868	1476.098022	-385.370758	719.921997	1320.111938	-286.706604	546.007996	1421.325562	-349.636749	881.631958	1423.213745	-387.345642	662.806702	1009.861145	-580.599365	750.729980	1006.480652	-574.641541	565.055725	964.245483	-356.645264	818.757874	965.483582	-337.680603	850.179138	718.617920	-298.248047	885.828796	766.830750	-347.184357	843.494202	854.940979	-324.018097	570.818176	676.811829	-409.608276	528.643127	750.446106	-421.357452	584.062439	790.174438	-361.563110	563.531677	487.358032	-551.009521	607.874695	371.093353	-570.139465	584.683655	316.676727	-630.075989	611.097534	267.857788	-650.780518	820.767090	502.419739	-288.259338	769.687500	391.341156	-250.392731	802.233643	325.787842	-276.110748	763.084229	272.861206	-275.342377	796.283875	79.349991	-352.895203	752.138733	33.525539	-409.407501	599.130005	135.033966	-797.609863	640.883484	131.668625	-871.726074	598.423279	46.508602	-727.486450	676.031189	46.640228	-703.835632	815.099670	45.572575	-237.380066	746.442993	56.689972	-207.867828	921.450928	1052.875366	405.212769	923.143066	1055.479736	474.673981	924.248657	1065.887939	350.906891	270.894409	1036.745850	618.627869	0.000000	0.000000	0.000000	0.000000	0.000000	0.000000	0.000000	0.000000	0.000000	-18.057798	12.091247	-1119.618652	1151.581421	12.611607	-1033.587891	-0.762127	11.990298	0.900236	1167.713013	12.552510	85.343132	0.000000	0.000000	0.000000	0.000000	0.000000	0.000000	0.000000	0.000000	0.000000	
1310	13.090000	706.849304	1219.451050	-508.093353	700.114014	1476.333496	-385.160126	721.256775	1320.476196	-286.120422	547.559570	1421.755493	-349.650421	883.350220	1423.235596	-386.412964	664.226746	1009.712280	-579.565308	752.182556	1006.768188	-573.556091	566.442810	964.141907	-355.807526	820.068298	965.828125	-336.528229	850.912415	717.531677	-298.090881	886.932068	766.727966	-346.626465	844.858704	854.629517	-323.058502	571.431152	676.501953	-407.427887	529.701904	750.171570	-419.736664	585.306641	790.182068	-360.213043	563.468567	486.978973	-548.594482	607.085815	370.867340	-569.093811	584.109131	317.852173	-630.192261	610.239258	269.215240	-651.585938	821.530823	501.196350	-291.293152	769.846558	389.740967	-254.909744	802.376648	324.426086	-281.157532	763.056885	271.555878	-281.289276	796.186401	79.190010	-361.363495	752.262390	33.864639	-418.560699	598.761841	139.094040	-800.819641	641.104004	138.342987	-874.200012	598.552307	47.109547	-735.139343	676.116699	46.761349	-712.257751	815.091003	44.811077	-246.070282	746.103088	55.689785	-216.499359	921.332031	1053.050049	404.746124	923.034851	1055.337402	475.164154	924.250977	1065.892456	350.900818	270.887665	1036.750366	618.627563	0.000000	0.000000	0.000000	0.000000	0.000000	0.000000	0.000000	0.000000	0.000000	-18.057821	12.091363	-1119.618774	1151.581421	12.611532	-1033.587769	-0.762083	11.990252	0.900121	1167.712891	12.552557	85.343193	0.000000	0.000000	0.000000	0.000000	0.000000	0.000000	0.000000	0.000000	0.000000	
1311	13.100000	708.500671	1219.507324	-507.407959	701.888062	1476.609619	-384.937592	722.570435	1320.876709	-285.526978	549.121155	1422.254761	-349.669830	885.083252	1423.281250	-385.410339	665.638916	1009.587952	-578.555603	753.625122	1007.111023	-572.492859	567.837341	964.072632	-354.990601	821.382446	966.224060	-335.398071	851.775085	716.390991	-298.110657	888.155884	766.685303	-346.304413	846.269165	854.360291	-322.182465	571.941467	676.258301	-404.939026	530.693604	749.950867	-417.950867	586.524475	790.296265	-358.759216	563.289978	486.557312	-545.593811	606.164307	370.633484	-567.411865	583.444946	319.050720	-629.682922	609.280334	270.616791	-651.755798	822.382080	500.036591	-294.599213	770.138000	388.195892	-259.702942	802.619568	323.114594	-286.526550	763.137207	270.308044	-287.517639	796.114258	79.067856	-370.082794	752.365479	34.222427	-427.897217	598.380371	143.298523	-803.371277	641.359924	145.238571	-875.896118	598.690369	47.871754	-742.411133	676.206238	47.016575	-720.322632	815.173096	44.113632	-254.967606	745.854187	54.802734	-225.317886	921.225708	1053.224365	404.330627	922.912231	1055.186890	475.689941	924.252930	1065.895996	350.895813	270.881561	1036.754395	618.627319	571.069275	2308.523682	-561.625122	0.000000	0.000000	0.000000	0.000000	0.000000	0.000000	-18.057846	12.091481	-1119.619019	1151.581299	12.611458	-1033.587769	-0.762039	11.990205	0.900006	1167.712769	12.552604	85.343254	0.000000	0.000000	0.000000	0.000000	0.000000	0.000000	0.000000	0.000000	0.000000	
1312	13.110000	710.159668	1219.608765	-506.730621	703.680542	1476.922119	-384.707825	723.857056	1321.307251	-284.934784	550.686951	1422.816772	-349.700684	886.823853	1423.347046	-384.345367	667.042419	1009.486572	-577.585083	755.055969	1007.504639	-571.465393	569.234619	964.037354	-354.207947	822.696960	966.666626	-334.302948	852.781616	715.227539	-298.364532	889.490784	766.696289	-346.242798	847.720947	854.128113	-321.405151	572.342407	676.091858	-402.156525	531.610535	749.792114	-416.015137	587.708008	790.521362	-357.216187	562.996094	486.101746	-542.005066	605.121399	370.399689	-565.080627	582.699768	320.268402	-628.526917	608.233337	272.059113	-651.266357	823.315125	498.943237	-298.185028	770.557556	386.715820	-264.758942	802.960449	321.857727	-292.190216	763.323120	269.123596	-293.987854	796.069092	78.970894	-378.963806	752.450623	34.579586	-437.321869	597.987610	147.630600	-805.225037	641.642212	152.308182	-876.791260	598.826477	48.818886	-749.200012	676.286255	47.426174	-727.914673	815.336304	43.484638	-263.979767	745.688232	54.035545	-234.239716	921.134277	1053.392334	403.975159	922.778015	1055.034912	476.229675	924.254211	1065.898560	350.892456	270.876740	1036.757568	618.627075	571.058228	2308.523438	-561.643738	923.805237	1052.608032	413.359314	0.000000	0.000000	0.000000	-18.057869	12.091599	-1119.619141	1151.581299	12.611385	-1033.587646	-0.761996	11.990158	0.899891	1167.712769	12.552652	85.343323	0.000000	0.000000	0.000000	0.000000	0.000000	0.000000	0.000000	0.000000	0.000000	
